<?xml version="1.0" encoding="utf-8"?>
<!-- Generator: Adobe Illustrator 18.0.0, SVG Export Plug-In . SVG Version: 6.00 Build 0)  -->
<!DOCTYPE svg PUBLIC "-//W3C//DTD SVG 1.1//EN" "http://www.w3.org/Graphics/SVG/1.1/DTD/svg11.dtd">
<svg version="1.1" xmlns="http://www.w3.org/2000/svg" xmlns:xlink="http://www.w3.org/1999/xlink" x="0px" y="0px"
	 viewBox="0 0 24 24" enable-background="new 0 0 24 24" xml:space="preserve">
<g id="Layer_28">
	<g>
		<path fill="none" stroke="#5E5C7F" stroke-width="2" stroke-miterlimit="10" d="M20.4,23H3.7c-0.6,0-1-0.4-1-1V2c0-0.6,0.4-1,1-1
			h16.7c0.6,0,1,0.4,1,1v20C21.4,22.6,20.9,23,20.4,23z"/>
	</g>
	
		<line fill="none" stroke="#FEC55C" stroke-width="0.5" stroke-linecap="round" stroke-linejoin="round" stroke-miterlimit="10" x1="5.4" y1="9.7" x2="19.6" y2="9.7"/>
	
		<line fill="none" stroke="#FEC55C" stroke-width="0.5" stroke-linecap="round" stroke-linejoin="round" stroke-miterlimit="10" x1="5.4" y1="12.2" x2="19.6" y2="12.2"/>
	
		<line fill="none" stroke="#FEC55C" stroke-width="0.5" stroke-linecap="round" stroke-linejoin="round" stroke-miterlimit="10" x1="5.4" y1="14.8" x2="19.6" y2="14.8"/>
	<path id="sound-2" fill="#B194C5" d="M16.8,8.7l0-1.9c0-0.1-0.1-0.2-0.2-0.2l-5.8,0.9c-0.1,0-0.2,0.2-0.2,0.3v0v2.5v4.6
		c-0.3-0.3-0.7-0.4-1.2-0.4c-0.9,0-1.7,0.6-1.7,1.4c0,0.8,0.8,1.4,1.7,1.4c0.9,0,1.7-0.6,1.7-1.4c0-0.1,0-0.1,0-0.2
		c0-0.1,0-0.1,0-0.1v-4.6v0v-0.6l5.3-0.9v4.5c-0.3-0.3-0.7-0.4-1.2-0.4c-0.9,0-1.7,0.6-1.7,1.4c0,0.8,0.8,1.4,1.7,1.4
		c0.9,0,1.7-0.6,1.7-1.4c0-0.1,0-0.1,0-0.2c0-0.1,0-0.1,0-0.1v-4.6v0V8.7z"/>
	<path id="sound-2_1_" fill="#75C594" d="M8,11.6l0-0.4c0,0,0,0,0,0l-1.1,0.2c0,0,0,0,0,0.1v0v0.5v0.9c-0.1,0-0.1-0.1-0.2-0.1
		c-0.2,0-0.3,0.1-0.3,0.3c0,0.2,0.1,0.3,0.3,0.3c0.2,0,0.3-0.1,0.3-0.3c0,0,0,0,0,0c0,0,0,0,0,0V12v0v-0.1l1-0.2v0.9
		c-0.1,0-0.1-0.1-0.2-0.1c-0.2,0-0.3,0.1-0.3,0.3c0,0.2,0.1,0.3,0.3,0.3C7.9,13.1,8,13,8,12.8c0,0,0,0,0,0c0,0,0,0,0,0v-0.9v0V11.6z
		"/>
</g>
<g id="Layer_27">
</g>
<g id="Layer_26">
</g>
<g id="Layer_25">
</g>
<g id="Layer_24">
</g>
<g id="Layer_23">
</g>
<g id="Layer_22">
</g>
<g id="Layer_21">
</g>
<g id="Layer_20">
</g>
<g id="Layer_19">
</g>
<g id="Layer_18">
</g>
<g id="Layer_17">
</g>
<g id="Layer_16">
</g>
<g id="Layer_15">
</g>
<g id="Layer_14">
</g>
<g id="Layer_13">
</g>
<g id="Layer_12">
</g>
<g id="Layer_11">
</g>
<g id="Layer_10">
</g>
<g id="Layer_9">
</g>
<g id="Layer_8">
</g>
<g id="Layer_7">
</g>
<g id="Layer_6">
</g>
<g id="Layer_5">
</g>
<g id="Layer_4">
</g>
<g id="Layer_3">
</g>
<g id="Layer_2">
</g>
<g id="Layer_1">
</g>
</svg>
