<?xml version="1.0" encoding="utf-8"?>
<!-- Generator: Adobe Illustrator 18.0.0, SVG Export Plug-In . SVG Version: 6.00 Build 0)  -->
<!DOCTYPE svg PUBLIC "-//W3C//DTD SVG 1.1//EN" "http://www.w3.org/Graphics/SVG/1.1/DTD/svg11.dtd">
<svg version="1.1"
	 id="Layer_1" xmlns:rdf="http://www.w3.org/1999/02/22-rdf-syntax-ns#" xmlns:cc="http://creativecommons.org/ns#" xmlns:dc="http://purl.org/dc/elements/1.1/"
	 xmlns="http://www.w3.org/2000/svg" xmlns:xlink="http://www.w3.org/1999/xlink" x="0px" y="0px" viewBox="0 0 16 16"
	 enable-background="new 0 0 16 16" xml:space="preserve">
<path display="none" fill="#55739A" d="M1.5,2C1.2,2,1,2.2,1,2.5v11.1C1,13.8,1.2,14,1.5,14h13.1c0.3,0,0.5-0.2,0.5-0.5V4.5
	C15,4.2,14.8,4,14.5,4H8L6,2L1.5,2L1.5,2z M9.8,5.5c0.4,0,0.9,0.2,1.2,0.5c0.6,0.6,0.6,1.7,0,2.3l-1,1c0-0.4,0-0.8-0.2-1.2l0.6-0.6
	c0.3-0.3,0.3-0.7,0-1c-0.3-0.3-0.7-0.3-1,0L7.7,8.3c-0.3,0.3-0.3,0.7,0,1c0.1,0.1,0.1,0.1,0.2,0.1l-0.7,0.7c-0.1,0-0.1-0.1-0.2-0.2
	C6.4,9.4,6.4,8.3,7,7.7L8.7,6C9,5.7,9.4,5.5,9.8,5.5z M8.8,7.8C8.9,7.9,8.9,7.9,9,8c0.6,0.6,0.6,1.7,0,2.3v0L7.3,12
	c-0.6,0.6-1.7,0.6-2.3,0c-0.6-0.6-0.6-1.7,0-2.3l1-1C6,9,6,9.4,6.2,9.8l-0.6,0.6c-0.3,0.3-0.3,0.7,0,1c0.3,0.3,0.7,0.3,1,0l1.7-1.7
	c0.3-0.3,0.3-0.7,0-1C8.3,8.6,8.2,8.6,8.1,8.5C8.1,8.5,8.8,7.8,8.8,7.8z"/>
<g id="Layer_20">
	<g>
		<path fill="#4C9AD4" d="M14.2,13.9H4.6c-0.4,0-0.6-0.3-0.6-0.7V2.8c0-0.4,0.3-0.7,0.6-0.7h2c0.2,0,0.3,0.1,0.5,0.2l0.6,0.5
			C7.8,3,8,3.1,8.2,3.1h6c0.4,0,0.6,0.3,0.6,0.7v9.4C14.8,13.6,14.5,13.9,14.2,13.9z"/>
		<path fill="#E9E7E8" d="M12.8,11.6H7.6c-0.9,0-1.7-0.8-1.7-1.7v-5c0-0.9,0.8-1.7,1.7-1.7h5.3c0.9,0,1.7,0.8,1.7,1.7v4.9
			C14.5,10.8,13.8,11.6,12.8,11.6z"/>
		<path fill="#FFFFFF" d="M12.8,12H7.6c-0.9,0-1.7-0.8-1.7-1.7v-5c0-0.9,0.8-1.7,1.7-1.7h5.3c0.9,0,1.7,0.8,1.7,1.7v5
			C14.5,11.3,13.8,12,12.8,12z"/>
		<path fill="#75BBE5" d="M14.4,13.9H1.6c-0.4,0-0.6-0.3-0.6-0.7V2.8c0-0.4,0.3-0.7,0.6-0.7h2.8c0.2,0,0.3,0.1,0.5,0.2l1.8,1.6
			C6.8,4.1,7,4.1,7.2,4.1h7.2c0.3,0,0.6,0.3,0.6,0.7v8.3C15,13.6,14.7,13.9,14.4,13.9z"/>
	</g>
</g>
<g>
	<path fill="#8ECCEF" d="M7.4,9.3c-0.1,0-0.1,0-0.2-0.1c-0.5-0.5-0.5-1.3,0-1.9l1-1c0.2-0.2,0.6-0.4,0.9-0.4s0.7,0.1,0.9,0.4
		c0.5,0.5,0.5,1.3,0,1.9L9.6,8.7c-0.1,0.1-0.3,0.1-0.4,0c-0.1-0.1-0.1-0.3,0-0.4l0.5-0.5C10,7.5,10,7,9.7,6.7
		C9.6,6.6,9.4,6.5,9.2,6.5S8.8,6.6,8.6,6.7l-1,1c-0.3,0.3-0.3,0.8,0,1.1c0.1,0.1,0.1,0.3,0,0.4C7.5,9.3,7.5,9.3,7.4,9.3L7.4,9.3z"/>
	<path fill="#8ECCEF" d="M6.4,11.3c-0.4,0-0.7-0.1-0.9-0.4C5,10.4,5,9.6,5.5,9.1l0.5-0.5c0.1-0.1,0.3-0.1,0.4,0
		c0.1,0.1,0.1,0.3,0,0.4L5.9,9.5c-0.3,0.3-0.3,0.8,0,1.1c0.1,0.1,0.3,0.2,0.5,0.2c0.2,0,0.4-0.1,0.5-0.2l1-1c0.3-0.3,0.3-0.8,0-1.1
		C7.9,8.3,7.9,8.2,8,8.1c0.1-0.1,0.3-0.1,0.4,0c0.5,0.5,0.5,1.3,0,1.9l-1,1C7.1,11.2,6.8,11.3,6.4,11.3z"/>
</g>
</svg>
