<?xml version="1.0" encoding="utf-8"?>
<!-- Generator: Adobe Illustrator 18.0.0, SVG Export Plug-In . SVG Version: 6.00 Build 0)  -->
<!DOCTYPE svg PUBLIC "-//W3C//DTD SVG 1.1//EN" "http://www.w3.org/Graphics/SVG/1.1/DTD/svg11.dtd">
<svg version="1.1" xmlns="http://www.w3.org/2000/svg" xmlns:xlink="http://www.w3.org/1999/xlink" x="0px" y="0px"
	 viewBox="0 0 24 24" enable-background="new 0 0 24 24" xml:space="preserve">
<g id="Layer_28">
</g>
<g id="Layer_27">
</g>
<g id="Layer_26">
</g>
<g id="Layer_25">
</g>
<g id="Layer_24">
	<g>
		<path fill="#F59169" d="M11.6,15.8v-4.4c-2.4,0-4.4,2-4.4,4.4s2,4.4,4.4,4.4s4.4-2,4.4-4.4c0-0.7-0.2-1.4-0.5-2L11.6,15.8z"/>
		<path fill="none" stroke="#F59169" stroke-width="2" stroke-miterlimit="10" d="M20.4,23H3.7c-0.6,0-1-0.4-1-1V2c0-0.6,0.4-1,1-1
			h16.7c0.6,0,1,0.4,1,1v20C21.4,22.6,20.9,23,20.4,23z"/>
		<text transform="matrix(1 0 0 1 8.7985 10.0925)" fill="#F59169" font-family="'Lato-Bold'" font-size="4.4">PPT</text>
		<path opacity="0.2" fill="#F59169" d="M20.9,1.2L3,22.7C3.2,22.9,3.5,23,3.8,23h16.5c0.6,0,1.1-0.5,1.1-1.1V2.1
			C21.4,1.7,21.2,1.4,20.9,1.2z"/>
		<path fill="#F59169" d="M15.7,13.3C15,11.9,13.6,11,12,11v4.1L15.7,13.3z"/>
	</g>
</g>
<g id="Layer_23">
</g>
<g id="Layer_22">
</g>
<g id="Layer_21">
</g>
<g id="Layer_20">
</g>
<g id="Layer_19">
</g>
<g id="Layer_18">
</g>
<g id="Layer_17">
</g>
<g id="Layer_16">
</g>
<g id="Layer_15">
</g>
<g id="Layer_14">
</g>
<g id="Layer_13">
</g>
<g id="Layer_12">
</g>
<g id="Layer_11">
</g>
<g id="Layer_10">
</g>
<g id="Layer_9">
</g>
<g id="Layer_8">
</g>
<g id="Layer_7">
</g>
<g id="Layer_6">
</g>
<g id="Layer_5">
</g>
<g id="Layer_4">
</g>
<g id="Layer_3">
</g>
<g id="Layer_2">
</g>
<g id="Layer_1">
</g>
</svg>
