<?xml version="1.0" encoding="utf-8"?>
<!-- Generator: Adobe Illustrator 18.0.0, SVG Export Plug-In . SVG Version: 6.00 Build 0)  -->
<!DOCTYPE svg PUBLIC "-//W3C//DTD SVG 1.1//EN" "http://www.w3.org/Graphics/SVG/1.1/DTD/svg11.dtd">
<svg version="1.1"
	 id="Layer_1" xmlns:rdf="http://www.w3.org/1999/02/22-rdf-syntax-ns#" xmlns:cc="http://creativecommons.org/ns#" xmlns:dc="http://purl.org/dc/elements/1.1/"
	 xmlns="http://www.w3.org/2000/svg" xmlns:xlink="http://www.w3.org/1999/xlink" x="0px" y="0px" viewBox="0 0 16 16"
	 enable-background="new 0 0 16 16" xml:space="preserve">
<g transform="matrix(.86667 0 0 .86667 -172.05 -864.43)" display="none">
	<path display="inline" d="M200.2,999.7c-0.3,0-0.5,0.2-0.5,0.5v12.8c0,0.3,0.2,0.5,0.5,0.5h15.1c0.3,0,0.5-0.2,0.5-0.5l0-10.5
		c0-0.3-0.2-0.5-0.5-0.5l-7.5,0l-2.3-2.3L200.2,999.7z"/>
</g>
<g id="Layer_20">
	<g>
		<path fill="#4C9AD4" d="M14.2,13.9H4.6c-0.4,0-0.6-0.3-0.6-0.7V2.8c0-0.4,0.3-0.7,0.6-0.7h2c0.2,0,0.3,0.1,0.5,0.2l0.6,0.5
			C7.8,3,8,3.1,8.2,3.1h6c0.4,0,0.6,0.3,0.6,0.7v9.4C14.8,13.6,14.5,13.9,14.2,13.9z"/>
		<path fill="#E9E7E8" d="M12.8,11.6H7.6c-0.9,0-1.7-0.8-1.7-1.7v-5c0-0.9,0.8-1.7,1.7-1.7h5.3c0.9,0,1.7,0.8,1.7,1.7v4.9
			C14.5,10.8,13.8,11.6,12.8,11.6z"/>
		<path fill="#FFFFFF" d="M12.8,12H7.6c-0.9,0-1.7-0.8-1.7-1.7v-5c0-0.9,0.8-1.7,1.7-1.7h5.3c0.9,0,1.7,0.8,1.7,1.7v5
			C14.5,11.3,13.8,12,12.8,12z"/>
		<path fill="#75BBE5" d="M14.4,13.9H1.6c-0.4,0-0.6-0.3-0.6-0.7V2.8c0-0.4,0.3-0.7,0.6-0.7h2.8c0.2,0,0.3,0.1,0.5,0.2l1.8,1.6
			c0.1,0.2,0.3,0.2,0.5,0.2h7.2c0.3,0,0.6,0.3,0.6,0.7v8.3C15,13.6,14.7,13.9,14.4,13.9z"/>
	</g>
</g>
</svg>
