<?xml version="1.0" encoding="utf-8"?>
<!-- Generator: Adobe Illustrator 18.0.0, SVG Export Plug-In . SVG Version: 6.00 Build 0)  -->
<!DOCTYPE svg PUBLIC "-//W3C//DTD SVG 1.1//EN" "http://www.w3.org/Graphics/SVG/1.1/DTD/svg11.dtd">
<svg version="1.1" id="Layer_1" xmlns="http://www.w3.org/2000/svg" xmlns:xlink="http://www.w3.org/1999/xlink" x="0px" y="0px"
	 viewBox="0 0 515.7 114.2" enable-background="new 0 0 515.7 114.2" xml:space="preserve">
<g>
	<path fill-rule="evenodd" clip-rule="evenodd" fill="#428BCA" d="M171.9,65.8c-1.7,0.5-4.4,1-6.8,1c-8.6,0-15.2-6.4-15.2-22.7
		c0-16.9,7.2-23.4,15.2-23.4c3.1,0,5,0.6,6.6,1.3l2.4-11.1c-1.4-0.9-4.9-1.8-9.8-1.8c-14.2,0-29.4,10-29.4,35.8
		c0,19.3,8.9,33.7,27.5,33.7c5,0,9-0.7,11-1.6L171.9,65.8L171.9,65.8z M181.1,9.7V78h14.2V49.4h14.8V78h14.2V9.7h-14.2V37h-14.8V9.7
		H181.1L181.1,9.7z M261.4,62.4l3.1,15.6h13.7L264.1,9.7h-17L231.4,78h13.7l3.2-15.6H261.4L261.4,62.4z M249.8,52l2.7-14.2
		c0.8-4,1.8-11,2.6-15.6h0.3c0.6,4.6,1.6,11.3,2.4,15.5l2.4,14.3H249.8L249.8,52z M298.7,78V62.6c0-13.7-0.5-24.2-0.9-31.1h0.2
		c1.6,6.2,5,14.8,7.4,20.6L316.6,78h13V9.7h-12.4v15.1c0,12.6,1,24.4,1.4,31.6h-0.2c-2.1-5.9-5.6-14.7-7.8-20L299.3,9.7h-13V78
		H298.7L298.7,78z M350,78h14.2V22h13V9.7h-40V22H350V78L350,78z M384.6,9.7V78h14.2V49.4h14.8V78h14.2V9.7h-14.2V37h-14.8V9.7
		H384.6L384.6,9.7z M471.1,36.9h-16.6V21.2h17.5V9.7h-31.7V78h33V66.4h-18.8V48h16.6V36.9L471.1,36.9z M482.8,78h32.9V66.7H497v-57
		h-14.2V78z"/>
	<path fill-rule="evenodd" clip-rule="evenodd" fill="#1692B4" d="M139.1,108.3V88.1h6.1c1.5,0,2.7,0.1,3.4,0.4
		c1,0.3,1.9,0.9,2.7,1.8c0.8,0.9,1.3,1.9,1.8,3.2c0.4,1.3,0.6,2.8,0.6,4.6c0,2.3-0.4,4.2-1.1,5.8c-0.7,1.6-1.6,2.7-2.8,3.4
		c-1.1,0.7-2.6,1-4.4,1H139.1L139.1,108.3z M141.4,105.9h3.8c1.5,0,2.7-0.2,3.4-0.7c0.8-0.5,1.4-1.2,1.8-2.2c0.6-1.4,0.8-3,0.8-4.9
		c0-2.1-0.3-3.7-0.9-4.8c-0.6-1.2-1.3-2-2.3-2.4c-0.6-0.3-1.6-0.4-3-0.4h-3.7V105.9L141.4,105.9z M157,101c0-2.5,0.6-4.4,1.7-5.7
		c1.1-1.3,2.6-1.9,4.3-1.9c1.7,0,3.1,0.6,4.3,1.9c1.1,1.3,1.7,3.1,1.7,5.6c0,2.6-0.6,4.6-1.7,5.9c-1.1,1.3-2.6,1.9-4.3,1.9
		c-1.7,0-3.1-0.6-4.3-1.9C157.6,105.4,157,103.5,157,101L157,101z M159.2,101c0,1.9,0.4,3.3,1.1,4.2c0.7,0.9,1.6,1.4,2.7,1.4
		c1,0,1.9-0.5,2.6-1.4c0.7-0.9,1.1-2.3,1.1-4.2c0-1.9-0.4-3.3-1.1-4.2c-0.7-0.9-1.6-1.4-2.7-1.4c-1,0-1.9,0.5-2.6,1.4
		C159.6,97.7,159.2,99.1,159.2,101L159.2,101z M181.1,103l2.2,0.3c-0.2,1.7-0.9,3.1-1.8,4c-1,0.9-2.2,1.4-3.6,1.4
		c-1.7,0-3.1-0.6-4.1-1.9c-1.1-1.3-1.6-3.2-1.6-5.7c0-2.5,0.5-4.5,1.6-5.7c1.1-1.3,2.5-1.9,4.2-1.9c1.3,0,2.4,0.4,3.4,1.2
		c0.9,0.8,1.5,1.9,1.7,3.5l-2.1,0.4c-0.2-1-0.6-1.7-1.1-2.2c-0.5-0.5-1.1-0.7-1.8-0.7c-1.1,0-2,0.4-2.7,1.3
		c-0.7,0.9-1.1,2.3-1.1,4.2c0,2,0.3,3.4,1,4.3c0.7,0.9,1.5,1.3,2.6,1.3c0.8,0,1.5-0.3,2.1-0.9C180.6,105.1,180.9,104.2,181.1,103
		L181.1,103z M194.6,108.3v-2.1c-0.5,0.8-1.1,1.4-1.8,1.9c-0.7,0.4-1.4,0.6-2.3,0.6c-1,0-1.9-0.3-2.6-0.8c-0.7-0.5-1.2-1.2-1.4-1.9
		c-0.2-0.8-0.4-1.8-0.4-3.2v-9.1h2.2v8.1c0,1.5,0.1,2.5,0.2,3c0.2,0.5,0.5,0.9,0.9,1.2c0.4,0.3,0.9,0.5,1.5,0.5c1,0,1.9-0.4,2.5-1.2
		c0.6-0.7,0.8-2,0.8-3.8v-7.8h2.2v14.6H194.6L194.6,108.3z M201.2,108.3V93.6h2v2.1c0.4-0.8,1-1.3,1.7-1.8c0.7-0.4,1.4-0.6,2.2-0.6
		c0.9,0,1.7,0.2,2.3,0.7c0.6,0.4,1.1,1.1,1.3,1.9c0.5-0.9,1.1-1.5,1.8-1.9c0.7-0.4,1.4-0.6,2.2-0.6c1.2,0,2.2,0.4,2.9,1.2
		c0.7,0.8,1.1,2,1.1,3.7v10h-2.2v-9.2c0-1-0.1-1.8-0.2-2.2c-0.2-0.4-0.4-0.8-0.8-1c-0.4-0.2-0.8-0.4-1.2-0.4c-0.9,0-1.7,0.3-2.3,1
		c-0.6,0.7-0.9,1.8-0.9,3.3v8.5h-2.2v-9.5c0-1.2-0.2-2.1-0.6-2.6c-0.4-0.5-0.9-0.7-1.6-0.7c-1,0-1.8,0.4-2.3,1.1
		c-0.6,0.7-0.9,2.1-0.9,4.1v7.6H201.2L201.2,108.3z M231.7,103.6l2.2,0.3c-0.4,1.6-1,2.7-2,3.5c-1,0.8-2.2,1.2-3.6,1.2
		c-1.8,0-3.3-0.6-4.4-1.9c-1.1-1.3-1.7-3.1-1.7-5.6c0-2.5,0.6-4.4,1.7-5.8c1.1-1.3,2.6-2,4.3-2c1.7,0,3,0.6,4.1,2
		c1.1,1.3,1.7,3.2,1.7,5.7l0,0.7h-9.6c0.1,1.6,0.5,2.9,1.2,3.7c0.7,0.8,1.6,1.3,2.7,1.3C229.9,106.6,231.1,105.6,231.7,103.6
		L231.7,103.6z M224.6,99.6h7.2c-0.1-1.3-0.4-2.2-0.9-2.8c-0.7-0.9-1.6-1.4-2.7-1.4c-1,0-1.8,0.4-2.5,1.1
		C225,97.3,224.6,98.3,224.6,99.6L224.6,99.6z M237.9,108.3V93.6h2v2.1c0.5-0.8,1-1.4,1.7-1.8c0.7-0.4,1.5-0.6,2.3-0.6
		c0.7,0,1.3,0.1,1.9,0.4c0.6,0.2,1,0.6,1.4,1c0.4,0.4,0.6,0.9,0.8,1.6c0.2,0.6,0.3,1.6,0.3,3v9h-2.2v-8.9c0-1.1-0.1-1.9-0.3-2.4
		c-0.2-0.5-0.5-0.9-0.9-1.2c-0.4-0.3-0.9-0.4-1.4-0.4c-1,0-1.9,0.4-2.5,1.1c-0.6,0.7-0.9,2-0.9,3.7v8H237.9L237.9,108.3z
		 M257.6,106.1l0.3,2.2c-0.6,0.2-1.1,0.2-1.6,0.2c-0.8,0-1.4-0.1-1.8-0.4c-0.5-0.3-0.8-0.7-0.9-1.2c-0.2-0.5-0.3-1.5-0.3-2.9v-8.4
		h-1.6v-1.9h1.6V90l2.2-1.5v5.1h2.2v1.9h-2.2v8.6c0,0.8,0.1,1.3,0.2,1.5c0.2,0.3,0.5,0.5,1,0.5C256.9,106.2,257.3,106.1,257.6,106.1
		L257.6,106.1z M268,108.3V88.1h3.5l4.2,14.3l0.8,3c0.2-0.7,0.5-1.8,0.9-3.2l4.2-14h3.2v20.2h-2.3v-17l-5.1,17h-2.1L270.2,91v17.3
		H268L268,108.3z M297.8,106.5c-0.7,0.7-1.5,1.2-2.3,1.6c-0.8,0.4-1.6,0.5-2.4,0.5c-1.3,0-2.4-0.4-3.2-1.1c-0.8-0.8-1.2-1.8-1.2-3
		c0-0.8,0.2-1.6,0.6-2.2c0.4-0.7,0.9-1.2,1.5-1.5c0.6-0.4,1.6-0.6,2.9-0.8c1.8-0.2,3.1-0.5,3.9-0.8l0-0.6c0-1-0.2-1.7-0.6-2.1
		c-0.5-0.6-1.4-0.9-2.5-0.9c-1,0-1.8,0.2-2.3,0.6c-0.5,0.4-0.9,1.1-1.1,2.2l-2.2-0.4c0.3-1.6,0.9-2.7,1.8-3.4c0.9-0.7,2.3-1.1,4-1.1
		c1.3,0,2.4,0.2,3.2,0.7c0.8,0.5,1.2,1.1,1.4,1.8c0.2,0.7,0.3,1.7,0.3,3.1v3.3c0,2.3,0,3.8,0.1,4.4c0.1,0.6,0.3,1.2,0.6,1.8h-2.3
		C298,107.8,297.9,107.2,297.8,106.5L297.8,106.5z M297.6,101c-0.8,0.4-2,0.7-3.5,0.9c-0.9,0.1-1.5,0.3-1.9,0.5
		c-0.4,0.2-0.6,0.5-0.8,0.8c-0.2,0.3-0.3,0.7-0.3,1.2c0,0.7,0.2,1.3,0.7,1.7c0.5,0.4,1.1,0.6,1.9,0.6c0.8,0,1.5-0.2,2.1-0.6
		c0.6-0.4,1.1-0.9,1.4-1.5c0.3-0.6,0.5-1.5,0.5-2.7V101L297.6,101z M304.4,108.3V93.6h2v2.1c0.5-0.8,1-1.4,1.7-1.8
		c0.7-0.4,1.5-0.6,2.3-0.6c0.7,0,1.3,0.1,1.9,0.4c0.6,0.2,1,0.6,1.4,1c0.4,0.4,0.6,0.9,0.8,1.6c0.2,0.6,0.3,1.6,0.3,3v9h-2.2v-8.9
		c0-1.1-0.1-1.9-0.3-2.4c-0.2-0.5-0.5-0.9-0.9-1.2c-0.4-0.3-0.9-0.4-1.4-0.4c-1,0-1.9,0.4-2.5,1.1c-0.6,0.7-0.9,2-0.9,3.7v8H304.4
		L304.4,108.3z M327.7,106.5c-0.7,0.7-1.5,1.2-2.3,1.6c-0.8,0.4-1.6,0.5-2.4,0.5c-1.3,0-2.4-0.4-3.2-1.1c-0.8-0.8-1.2-1.8-1.2-3
		c0-0.8,0.2-1.6,0.6-2.2c0.4-0.7,0.9-1.2,1.5-1.5c0.6-0.4,1.6-0.6,2.9-0.8c1.8-0.2,3.1-0.5,3.9-0.8l0-0.6c0-1-0.2-1.7-0.6-2.1
		c-0.5-0.6-1.4-0.9-2.5-0.9c-1,0-1.8,0.2-2.3,0.6c-0.5,0.4-0.9,1.1-1.1,2.2l-2.2-0.4c0.3-1.6,0.9-2.7,1.8-3.4c0.9-0.7,2.3-1.1,4-1.1
		c1.3,0,2.4,0.2,3.2,0.7c0.8,0.5,1.2,1.1,1.4,1.8c0.2,0.7,0.3,1.7,0.3,3.1v3.3c0,2.3,0,3.8,0.1,4.4c0.1,0.6,0.3,1.2,0.6,1.8h-2.3
		C327.9,107.8,327.7,107.2,327.7,106.5L327.7,106.5z M327.5,101c-0.8,0.4-2,0.7-3.5,0.9c-0.9,0.1-1.5,0.3-1.9,0.5
		c-0.4,0.2-0.6,0.5-0.8,0.8c-0.2,0.3-0.3,0.7-0.3,1.2c0,0.7,0.2,1.3,0.7,1.7c0.5,0.4,1.1,0.6,1.9,0.6c0.8,0,1.5-0.2,2.1-0.6
		c0.6-0.4,1.1-0.9,1.4-1.5c0.3-0.6,0.5-1.5,0.5-2.7V101L327.5,101z M333.8,109.5l2.1,0.4c0.1,0.8,0.4,1.4,0.9,1.7
		c0.5,0.4,1.2,0.6,2.1,0.6c1,0,1.7-0.2,2.3-0.6c0.6-0.4,1-1.1,1.2-1.9c0.1-0.5,0.2-1.6,0.2-3.2c-0.5,0.6-1,1.1-1.6,1.4
		c-0.6,0.3-1.2,0.5-2,0.5c-1.5,0-2.8-0.6-3.8-1.8c-1.2-1.4-1.7-3.3-1.7-5.6c0-1.6,0.3-2.9,0.8-4.1c0.5-1.2,1.2-2,2-2.6
		c0.8-0.5,1.8-0.8,2.8-0.8c0.8,0,1.4,0.2,2.1,0.5c0.6,0.3,1.2,0.9,1.7,1.6v-1.8h2v12.6c0,2.3-0.2,3.9-0.6,4.8c-0.4,1-1,1.7-1.9,2.3
		c-0.9,0.6-2,0.8-3.2,0.8c-1.7,0-2.9-0.4-3.8-1.3C334.2,112.1,333.8,111,333.8,109.5L333.8,109.5z M335.6,100.7c0,1.9,0.3,3.3,1,4.2
		c0.7,0.9,1.5,1.3,2.5,1.3c1,0,1.8-0.4,2.5-1.3c0.7-0.9,1-2.2,1-4.1c0-1.8-0.4-3.2-1.1-4.1c-0.7-0.9-1.6-1.3-2.6-1.3
		c-0.9,0-1.7,0.5-2.4,1.3C336,97.6,335.6,98.9,335.6,100.7L335.6,100.7z M357.9,103.6l2.2,0.3c-0.4,1.6-1,2.7-2,3.5
		c-1,0.8-2.2,1.2-3.6,1.2c-1.8,0-3.3-0.6-4.4-1.9c-1.1-1.3-1.7-3.1-1.7-5.6c0-2.5,0.6-4.4,1.7-5.8c1.1-1.3,2.6-2,4.3-2
		c1.7,0,3,0.6,4.1,2c1.1,1.3,1.7,3.2,1.7,5.7l0,0.7h-9.6c0.1,1.6,0.5,2.9,1.2,3.7c0.7,0.8,1.6,1.3,2.7,1.3
		C356.1,106.6,357.3,105.6,357.9,103.6L357.9,103.6z M350.8,99.6h7.2c-0.1-1.3-0.4-2.2-0.9-2.8c-0.7-0.9-1.6-1.4-2.7-1.4
		c-1,0-1.8,0.4-2.5,1.1S350.8,98.3,350.8,99.6L350.8,99.6z M364.1,108.3V93.6h2v2.1c0.4-0.8,1-1.3,1.7-1.8c0.7-0.4,1.4-0.6,2.2-0.6
		c0.9,0,1.7,0.2,2.3,0.7c0.6,0.4,1.1,1.1,1.3,1.9c0.5-0.9,1.1-1.5,1.8-1.9c0.7-0.4,1.4-0.6,2.2-0.6c1.2,0,2.2,0.4,2.9,1.2
		c0.7,0.8,1.1,2,1.1,3.7v10h-2.2v-9.2c0-1-0.1-1.8-0.2-2.2c-0.2-0.4-0.4-0.8-0.8-1c-0.4-0.2-0.8-0.4-1.2-0.4c-0.9,0-1.7,0.3-2.3,1
		c-0.6,0.7-0.9,1.8-0.9,3.3v8.5h-2.2v-9.5c0-1.2-0.2-2.1-0.6-2.6c-0.4-0.5-0.9-0.7-1.6-0.7c-1,0-1.8,0.4-2.3,1.1
		c-0.6,0.7-0.9,2.1-0.9,4.1v7.6H364.1L364.1,108.3z M394.6,103.6l2.2,0.3c-0.4,1.6-1,2.7-2,3.5c-1,0.8-2.2,1.2-3.6,1.2
		c-1.8,0-3.3-0.6-4.4-1.9c-1.1-1.3-1.7-3.1-1.7-5.6c0-2.5,0.6-4.4,1.7-5.8c1.1-1.3,2.6-2,4.3-2c1.7,0,3,0.6,4.1,2
		c1.1,1.3,1.7,3.2,1.7,5.7l0,0.7h-9.6c0.1,1.6,0.5,2.9,1.2,3.7c0.7,0.8,1.6,1.3,2.7,1.3C392.8,106.6,394,105.6,394.6,103.6
		L394.6,103.6z M387.4,99.6h7.2c-0.1-1.3-0.4-2.2-0.9-2.8c-0.7-0.9-1.6-1.4-2.7-1.4c-1,0-1.8,0.4-2.5,1.1
		C387.9,97.3,387.5,98.3,387.4,99.6L387.4,99.6z M400.8,108.3V93.6h2v2.1c0.5-0.8,1-1.4,1.7-1.8c0.7-0.4,1.5-0.6,2.3-0.6
		c0.7,0,1.3,0.1,1.9,0.4c0.6,0.2,1,0.6,1.4,1c0.4,0.4,0.6,0.9,0.8,1.6c0.2,0.6,0.3,1.6,0.3,3v9H409v-8.9c0-1.1-0.1-1.9-0.3-2.4
		c-0.2-0.5-0.5-0.9-0.9-1.2c-0.4-0.3-0.9-0.4-1.4-0.4c-1,0-1.9,0.4-2.5,1.1c-0.6,0.7-0.9,2-0.9,3.7v8H400.8L400.8,108.3z
		 M420.5,106.1l0.3,2.2c-0.6,0.2-1.1,0.2-1.6,0.2c-0.8,0-1.4-0.1-1.8-0.4c-0.5-0.3-0.8-0.7-0.9-1.2c-0.2-0.5-0.3-1.5-0.3-2.9v-8.4
		h-1.6v-1.9h1.6V90l2.2-1.5v5.1h2.2v1.9h-2.2v8.6c0,0.8,0.1,1.3,0.2,1.5c0.2,0.3,0.5,0.5,1,0.5C419.8,106.2,420.1,106.1,420.5,106.1
		L420.5,106.1z M430.1,101.8l2.2-0.2c0.1,1.1,0.4,2,0.8,2.6c0.4,0.6,1,1.1,1.8,1.5c0.8,0.4,1.6,0.6,2.6,0.6c1.4,0,2.5-0.3,3.2-1
		c0.8-0.6,1.1-1.5,1.1-2.5c0-0.6-0.1-1.1-0.4-1.6c-0.3-0.4-0.7-0.8-1.3-1.1c-0.6-0.3-1.8-0.7-3.7-1.2c-1.7-0.5-2.8-0.9-3.6-1.4
		c-0.7-0.5-1.3-1.1-1.7-1.8c-0.4-0.7-0.6-1.5-0.6-2.4c0-1.6,0.6-3,1.7-4c1.1-1,2.6-1.6,4.5-1.6c1.3,0,2.5,0.2,3.4,0.7
		c1,0.5,1.7,1.2,2.3,2.1c0.5,0.9,0.8,2,0.9,3.2l-2.2,0.2c-0.1-1.3-0.5-2.3-1.3-2.9c-0.7-0.6-1.7-0.9-3-0.9c-1.3,0-2.3,0.3-3,0.8
		c-0.7,0.6-1,1.3-1,2.1c0,0.8,0.3,1.5,0.8,1.9c0.5,0.5,1.7,0.9,3.4,1.4c1.7,0.4,3,0.8,3.7,1.2c1.1,0.5,1.9,1.2,2.4,2
		c0.5,0.8,0.8,1.8,0.8,3c0,1.2-0.3,2.2-0.9,3.2c-0.6,1-1.4,1.7-2.4,2.2c-1,0.5-2.2,0.7-3.6,0.7c-2.2,0-3.9-0.6-5.2-1.8
		C430.8,105.5,430.2,103.9,430.1,101.8L430.1,101.8z M448.2,113.9l-0.2-2.3c0.5,0.2,0.9,0.2,1.2,0.2c0.5,0,0.8-0.1,1.1-0.3
		c0.3-0.2,0.5-0.4,0.7-0.8c0.1-0.1,0.4-1,0.8-2.5l-4.8-14.6h2.3l2.7,8.4c0.3,1,0.6,2.2,0.9,3.4c0.2-1.1,0.5-2.2,0.9-3.3l2.7-8.5h2.2
		l-4.9,14.9c-0.6,1.9-1.1,3.2-1.5,3.9c-0.4,0.6-0.8,1.1-1.2,1.4c-0.5,0.3-1,0.4-1.6,0.4C449.2,114.2,448.7,114.1,448.2,113.9
		L448.2,113.9z M461,103.9l2.2-0.4c0.1,1,0.5,1.8,1,2.3c0.6,0.5,1.3,0.8,2.3,0.8c0.9,0,1.7-0.2,2.2-0.7c0.5-0.4,0.8-1,0.8-1.7
		c0-0.6-0.2-1-0.6-1.4c-0.3-0.2-1-0.5-2.2-0.8c-1.7-0.5-2.8-0.9-3.4-1.2c-0.6-0.3-1-0.8-1.3-1.4c-0.3-0.6-0.5-1.2-0.5-1.9
		c0-1.2,0.4-2.3,1.3-3c0.9-0.8,2-1.2,3.5-1.2c0.9,0,1.8,0.2,2.5,0.5c0.7,0.3,1.3,0.8,1.7,1.3c0.4,0.5,0.6,1.3,0.8,2.3l-2.1,0.4
		c-0.2-1.6-1.1-2.5-2.8-2.5c-0.9,0-1.7,0.2-2.1,0.5c-0.5,0.4-0.7,0.8-0.7,1.4c0,0.5,0.2,1,0.7,1.3c0.3,0.2,1.1,0.5,2.4,0.9
		c1.8,0.5,3,0.9,3.5,1.3c0.5,0.3,0.9,0.8,1.2,1.3c0.3,0.5,0.4,1.2,0.4,2c0,1.4-0.5,2.5-1.4,3.4c-0.9,0.9-2.2,1.3-3.9,1.3
		C463.2,108.6,461.5,107.1,461,103.9L461,103.9z M480.2,106.1l0.3,2.2c-0.6,0.2-1.1,0.2-1.6,0.2c-0.8,0-1.4-0.1-1.8-0.4
		c-0.5-0.3-0.8-0.7-0.9-1.2c-0.2-0.5-0.3-1.5-0.3-2.9v-8.4h-1.6v-1.9h1.6V90l2.2-1.5v5.1h2.2v1.9H478v8.6c0,0.8,0.1,1.3,0.2,1.5
		c0.2,0.3,0.5,0.5,1,0.5C479.5,106.2,479.8,106.1,480.2,106.1L480.2,106.1z M492.2,103.6l2.2,0.3c-0.4,1.6-1,2.7-2,3.5
		c-1,0.8-2.2,1.2-3.6,1.2c-1.8,0-3.3-0.6-4.4-1.9c-1.1-1.3-1.7-3.1-1.7-5.6c0-2.5,0.6-4.4,1.7-5.8c1.1-1.3,2.6-2,4.3-2
		c1.7,0,3,0.6,4.1,2c1.1,1.3,1.7,3.2,1.7,5.7l0,0.7h-9.6c0.1,1.6,0.5,2.9,1.2,3.7c0.7,0.8,1.6,1.3,2.7,1.3
		C490.4,106.6,491.5,105.6,492.2,103.6L492.2,103.6z M485,99.6h7.2c-0.1-1.3-0.4-2.2-0.9-2.8c-0.7-0.9-1.6-1.4-2.7-1.4
		c-1,0-1.8,0.4-2.5,1.1C485.5,97.3,485.1,98.3,485,99.6L485,99.6z M498.3,108.3V93.6h2v2.1c0.4-0.8,1-1.3,1.7-1.8
		c0.7-0.4,1.4-0.6,2.2-0.6c0.9,0,1.7,0.2,2.3,0.7c0.6,0.4,1.1,1.1,1.3,1.9c0.5-0.9,1.1-1.5,1.8-1.9c0.7-0.4,1.4-0.6,2.2-0.6
		c1.2,0,2.2,0.4,2.9,1.2c0.7,0.8,1.1,2,1.1,3.7v10h-2.2v-9.2c0-1-0.1-1.8-0.2-2.2c-0.2-0.4-0.4-0.8-0.8-1c-0.4-0.2-0.8-0.4-1.2-0.4
		c-0.9,0-1.7,0.3-2.3,1c-0.6,0.7-0.9,1.8-0.9,3.3v8.5h-2.2v-9.5c0-1.2-0.2-2.1-0.6-2.6c-0.4-0.5-0.9-0.7-1.6-0.7
		c-1,0-1.8,0.4-2.3,1.1c-0.6,0.7-0.9,2.1-0.9,4.1v7.6H498.3z"/>
	<g>
		<path fill-rule="evenodd" clip-rule="evenodd" fill="#428BCA" d="M73.1,111.4l-2.2-3.7l23.6-39c3.8-6.3,4.4-15.9,0.6-22.3
			L70.9,6.5l1.7-2.8c2.8-4.6,7-5,9.5-0.9l28.4,47c2.4,4,2.2,11.1-0.6,15.7l-27.3,45.1C79.8,115,75.5,115.5,73.1,111.4z"/>
		<path fill-rule="evenodd" clip-rule="evenodd" fill="#428BCA" d="M52.2,111.4l-28.4-47c-2.4-4-2.2-11.1,0.6-15.7L51.7,3.7
			c2.8-4.6,7-5,9.5-0.9l28.4,47c2.4,4,2.2,11.1-0.6,15.7l-27.3,45.1C58.9,115,54.7,115.5,52.2,111.4z"/>
		<path fill-rule="evenodd" clip-rule="evenodd" fill="#428BCA" d="M39,111.4l2.2-3.7l-23.6-39c-3.8-6.3-4.4-15.9-0.6-22.3L41.2,6.5
			l-1.7-2.8c-2.8-4.6-7-5-9.5-0.9l-28.4,47c-2.4,4-2.2,11.1,0.6,15.7l27.3,45.1C32.3,115,36.5,115.5,39,111.4z"/>
	</g>
</g>
</svg>
