<?xml version="1.0" encoding="utf-8"?>
<!-- Generator: Adobe Illustrator 18.0.0, SVG Export Plug-In . SVG Version: 6.00 Build 0)  -->
<!DOCTYPE svg PUBLIC "-//W3C//DTD SVG 1.1//EN" "http://www.w3.org/Graphics/SVG/1.1/DTD/svg11.dtd">
<svg version="1.1"
	 id="Layer_1" xmlns:rdf="http://www.w3.org/1999/02/22-rdf-syntax-ns#" xmlns:cc="http://creativecommons.org/ns#" xmlns:dc="http://purl.org/dc/elements/1.1/"
	 xmlns="http://www.w3.org/2000/svg" xmlns:xlink="http://www.w3.org/1999/xlink" x="0px" y="0px" viewBox="0 10.9 62 12.4"
	 enable-background="new 0 10.9 62 12.4" xml:space="preserve">
<path display="none" fill="#111010" d="M29.6,3c-3.7,0-6.7,3-6.7,6.7c0,1.5,0.5,2.9,1.4,4.1c1.9-2.2,4.6-3.5,7.7-3.5
	c1.5,0,2.9,0.3,4.2,0.9c0.1-0.5,0.2-1,0.2-1.5C36.4,6,33.4,3,29.6,3L29.6,3z M20.9,6.1c-1.9,0-3.5,1.6-3.5,3.5
	c0,0.6,0.2,1.2,0.4,1.7c1.2-0.7,2.5-1,4-1c0.1,0,0.3,0,0.4,0c0-0.2,0-0.4,0-0.6c0-1.1,0.2-2.1,0.6-3C22.2,6.3,21.6,6.1,20.9,6.1
	L20.9,6.1z M37.4,8.5c-0.1,0-0.3,0-0.4,0c0.1,0.4,0.1,0.8,0.1,1.2c0,0.6-0.1,1.2-0.2,1.8c1.7,0.9,3.1,2.3,4,4.1c1-0.5,2-0.8,3.2-0.9
	C43.8,11.2,41,8.5,37.4,8.5L37.4,8.5z M32,11c-5.2,0-9.4,4.2-9.4,9.4c0,5.2,4.2,9.4,9.4,9.4s9.4-4.2,9.4-9.4
	C41.4,15.2,37.2,11,32,11z M21.8,11c-4,0-7.3,3.3-7.3,7.3c0,2.4,1.1,4.5,2.9,5.8c0.7-1.4,2.2-2.4,3.9-2.4c0.2,0,0.4,0,0.6,0.1
	c-0.1-0.5-0.1-0.9-0.1-1.4c0-2.3,0.7-4.4,2-6.1c-0.8-0.9-1.3-2.1-1.5-3.3C22.1,11.1,21.9,11,21.8,11L21.8,11z M44.7,15.4
	c-1.2,0-2.4,0.3-3.4,0.8c0.6,1.3,0.9,2.7,0.9,4.2c0,2.8-1.1,5.3-2.9,7.2c1.3,1.5,3.3,2.4,5.4,2.4c4,0,7.3-3.3,7.3-7.3
	C52,18.7,48.7,15.4,44.7,15.4L44.7,15.4z M13.7,16.4c-3.7,0-6.7,3-6.7,6.7c0,3.7,3,6.7,6.7,6.7c1.4,0,2.7-0.4,3.8-1.2
	c-0.4-0.7-0.7-1.5-0.7-2.4c0-0.5,0.1-0.9,0.2-1.3c-2-1.5-3.4-3.9-3.4-6.5c0-0.7,0.1-1.3,0.3-2C13.9,16.4,13.8,16.4,13.7,16.4
	L13.7,16.4z M53.3,22.1c-0.2,0-0.4,0-0.6,0.1c0,0.2,0,0.3,0,0.5c0,2.1-0.8,4.1-2.2,5.5c0.7,0.8,1.7,1.3,2.8,1.3c2,0,3.7-1.6,3.7-3.7
	S55.3,22.1,53.3,22.1L53.3,22.1z M21.3,22.5c-2,0-3.7,1.6-3.7,3.7s1.6,3.7,3.7,3.7c1.6,0,2.9-1,3.4-2.3c-1.3-1.3-2.3-3-2.7-4.9
	C21.8,22.6,21.5,22.5,21.3,22.5L21.3,22.5z"/>
<g>
	<path fill="#F4F4F4" d="M22.7,19.1c-0.2,0-0.4,0.1-0.7,0.1c-0.8,0-1.5-0.6-1.5-2.2c0-1.6,0.7-2.3,1.5-2.3c0.3,0,0.5,0.1,0.6,0.1
		l0.2-1.1c-0.1-0.1-0.5-0.2-0.9-0.2c-1.4,0-2.8,1-2.8,3.5c0,1.9,0.9,3.3,2.7,3.3c0.5,0,0.9-0.1,1.1-0.2L22.7,19.1L22.7,19.1z
		 M23.6,13.7v6.6h1.4v-2.8h1.4v2.8h1.4v-6.6h-1.4v2.6h-1.4v-2.6H23.6L23.6,13.7z M31.3,18.8l0.3,1.5H33l-1.4-6.6H30l-1.5,6.6h1.3
		l0.3-1.5H31.3L31.3,18.8z M30.2,17.8l0.3-1.4c0.1-0.4,0.2-1.1,0.3-1.5h0c0.1,0.4,0.2,1.1,0.2,1.5l0.2,1.4H30.2L30.2,17.8z M35,20.3
		v-1.5c0-1.3,0-2.3-0.1-3h0c0.2,0.6,0.5,1.4,0.7,2l1.1,2.5H38v-6.6h-1.2v1.5c0,1.2,0.1,2.4,0.1,3.1h0c-0.2-0.6-0.5-1.4-0.8-1.9
		L35,13.7h-1.3v6.6H35L35,20.3z M39.9,20.3h1.4v-5.4h1.3v-1.2h-3.9v1.2h1.2V20.3L39.9,20.3z M43.3,13.7v6.6h1.4v-2.8h1.4v2.8h1.4
		v-6.6h-1.4v2.6h-1.4v-2.6H43.3L43.3,13.7z M51.7,16.3h-1.6v-1.5h1.7v-1.1h-3.1v6.6h3.2v-1.1h-1.8v-1.8h1.6V16.3L51.7,16.3z
		 M52.8,20.3H56v-1.1h-1.8v-5.5h-1.4V20.3z"/>
	<path display="none" fill="#1692B4" d="M19.5,22v-2h0.6c0.1,0,0.3,0,0.3,0c0.1,0,0.2,0.1,0.3,0.2c0.1,0.1,0.1,0.2,0.2,0.3
		c0,0.1,0.1,0.3,0.1,0.4c0,0.2,0,0.4-0.1,0.6s-0.2,0.3-0.3,0.3c-0.1,0.1-0.3,0.1-0.4,0.1H19.5L19.5,22z M19.7,21.7h0.4
		c0.1,0,0.3,0,0.3-0.1c0.1,0,0.1-0.1,0.2-0.2c0.1-0.1,0.1-0.3,0.1-0.5c0-0.2,0-0.4-0.1-0.5c-0.1-0.1-0.1-0.2-0.2-0.2
		c-0.1,0-0.2,0-0.3,0h-0.4L19.7,21.7L19.7,21.7z M21.2,21.3c0-0.2,0.1-0.4,0.2-0.6c0.1-0.1,0.3-0.2,0.4-0.2s0.3,0.1,0.4,0.2
		c0.1,0.1,0.2,0.3,0.2,0.5c0,0.3-0.1,0.4-0.2,0.6C22.1,21.9,22,22,21.8,22s-0.3-0.1-0.4-0.2C21.3,21.7,21.2,21.5,21.2,21.3
		L21.2,21.3z M21.4,21.3c0,0.2,0,0.3,0.1,0.4c0.1,0.1,0.2,0.1,0.3,0.1c0.1,0,0.2,0,0.3-0.1c0.1-0.1,0.1-0.2,0.1-0.4
		c0-0.2,0-0.3-0.1-0.4c-0.1-0.1-0.2-0.1-0.3-0.1c-0.1,0-0.2,0-0.3,0.1C21.5,20.9,21.4,21.1,21.4,21.3L21.4,21.3z M23.6,21.4l0.2,0
		c0,0.2-0.1,0.3-0.2,0.4c-0.1,0.1-0.2,0.1-0.3,0.1c-0.2,0-0.3-0.1-0.4-0.2c-0.1-0.1-0.2-0.3-0.2-0.6s0-0.4,0.2-0.6
		c0.1-0.1,0.2-0.2,0.4-0.2c0.1,0,0.2,0,0.3,0.1c0.1,0.1,0.1,0.2,0.2,0.3l-0.2,0c0-0.1-0.1-0.2-0.1-0.2c0,0-0.1-0.1-0.2-0.1
		c-0.1,0-0.2,0-0.3,0.1c-0.1,0.1-0.1,0.2-0.1,0.4c0,0.2,0,0.3,0.1,0.4c0.1,0.1,0.1,0.1,0.3,0.1c0.1,0,0.1,0,0.2-0.1
		C23.5,21.6,23.5,21.6,23.6,21.4L23.6,21.4z M24.9,22v-0.2c0,0.1-0.1,0.1-0.2,0.2c-0.1,0-0.1,0.1-0.2,0.1c-0.1,0-0.2,0-0.3-0.1
		c-0.1,0-0.1-0.1-0.1-0.2c0-0.1,0-0.2,0-0.3v-0.9h0.2v0.8c0,0.1,0,0.2,0,0.3c0,0,0,0.1,0.1,0.1c0,0,0.1,0,0.1,0c0.1,0,0.2,0,0.2-0.1
		c0.1-0.1,0.1-0.2,0.1-0.4v-0.8H25V22H24.9L24.9,22z M25.5,22v-1.4h0.2v0.2c0-0.1,0.1-0.1,0.2-0.2c0.1,0,0.1-0.1,0.2-0.1
		c0.1,0,0.2,0,0.2,0.1c0.1,0,0.1,0.1,0.1,0.2c0-0.1,0.1-0.1,0.2-0.2c0.1,0,0.1-0.1,0.2-0.1c0.1,0,0.2,0,0.3,0.1
		c0.1,0.1,0.1,0.2,0.1,0.4v1H27v-0.9c0-0.1,0-0.2,0-0.2c0,0,0-0.1-0.1-0.1s-0.1,0-0.1,0c-0.1,0-0.2,0-0.2,0.1
		c-0.1,0.1-0.1,0.2-0.1,0.3V22h-0.2V21c0-0.1,0-0.2-0.1-0.3c0,0-0.1-0.1-0.2-0.1c-0.1,0-0.2,0-0.2,0.1c-0.1,0.1-0.1,0.2-0.1,0.4V22
		H25.5L25.5,22z M28.5,21.5l0.2,0c0,0.2-0.1,0.3-0.2,0.3c-0.1,0.1-0.2,0.1-0.3,0.1c-0.2,0-0.3-0.1-0.4-0.2c-0.1-0.1-0.2-0.3-0.2-0.5
		c0-0.2,0.1-0.4,0.2-0.6c0.1-0.1,0.3-0.2,0.4-0.2s0.3,0.1,0.4,0.2c0.1,0.1,0.2,0.3,0.2,0.6v0.1h-0.9c0,0.2,0,0.3,0.1,0.4
		c0.1,0.1,0.2,0.1,0.3,0.1C28.3,21.8,28.4,21.7,28.5,21.5L28.5,21.5z M27.8,21.1h0.7c0-0.1,0-0.2-0.1-0.3c-0.1-0.1-0.2-0.1-0.3-0.1
		c-0.1,0-0.2,0-0.2,0.1C27.8,20.9,27.8,21,27.8,21.1L27.8,21.1z M29.1,22v-1.4h0.2v0.2c0-0.1,0.1-0.1,0.2-0.2c0.1,0,0.1-0.1,0.2-0.1
		c0.1,0,0.1,0,0.2,0c0.1,0,0.1,0.1,0.1,0.1c0,0,0.1,0.1,0.1,0.2c0,0.1,0,0.2,0,0.3V22h-0.2v-0.9c0-0.1,0-0.2,0-0.2
		c0,0,0-0.1-0.1-0.1c0,0-0.1,0-0.1,0c-0.1,0-0.2,0-0.2,0.1c-0.1,0.1-0.1,0.2-0.1,0.4v0.8L29.1,22L29.1,22z M31,21.7l0,0.2
		c-0.1,0-0.1,0-0.2,0c-0.1,0-0.1,0-0.2,0c0,0-0.1-0.1-0.1-0.1c0,0,0-0.1,0-0.3v-0.8h-0.2v-0.2h0.2v-0.4l0.2-0.1v0.5H31v0.2h-0.2v0.8
		c0,0.1,0,0.1,0,0.1C30.8,21.7,30.8,21.7,31,21.7C30.9,21.8,30.9,21.7,31,21.7L31,21.7z M32,22v-2h0.3l0.4,1.4l0.1,0.3
		c0-0.1,0-0.2,0.1-0.3l0.4-1.4h0.3v2h-0.2v-1.6L32.9,22h-0.2l-0.5-1.7V22H32L32,22z M34.9,21.8c-0.1,0.1-0.1,0.1-0.2,0.2
		c-0.1,0-0.2,0-0.2,0c-0.1,0-0.2,0-0.3-0.1C34,21.8,34,21.7,34,21.6c0-0.1,0-0.2,0.1-0.2c0-0.1,0.1-0.1,0.1-0.1
		c0.1,0,0.2-0.1,0.3-0.1c0.2,0,0.3,0,0.4-0.1V21c0-0.1,0-0.2-0.1-0.2c0-0.1-0.1-0.1-0.2-0.1c-0.1,0-0.2,0-0.2,0.1
		c0,0-0.1,0.1-0.1,0.2L34,21c0-0.2,0.1-0.3,0.2-0.3c0.1-0.1,0.2-0.1,0.4-0.1c0.1,0,0.2,0,0.3,0.1c0.1,0,0.1,0.1,0.1,0.2
		c0,0.1,0,0.2,0,0.3v0.3c0,0.2,0,0.4,0,0.4s0,0.1,0.1,0.2h-0.2C34.9,21.9,34.9,21.9,34.9,21.8L34.9,21.8z M34.9,21.3
		c-0.1,0-0.2,0.1-0.3,0.1c-0.1,0-0.1,0-0.2,0c0,0-0.1,0-0.1,0.1c0,0,0,0.1,0,0.1c0,0.1,0,0.1,0.1,0.2c0,0,0.1,0.1,0.2,0.1
		c0.1,0,0.1,0,0.2-0.1s0.1-0.1,0.1-0.1C34.8,21.5,34.9,21.5,34.9,21.3L34.9,21.3L34.9,21.3z M35.5,22v-1.4h0.2v0.2
		c0-0.1,0.1-0.1,0.2-0.2c0.1,0,0.1-0.1,0.2-0.1c0.1,0,0.1,0,0.2,0c0.1,0,0.1,0.1,0.1,0.1s0.1,0.1,0.1,0.2c0,0.1,0,0.2,0,0.3V22h-0.2
		v-0.9c0-0.1,0-0.2,0-0.2c0,0,0-0.1-0.1-0.1c0,0-0.1,0-0.1,0c-0.1,0-0.2,0-0.2,0.1c-0.1,0.1-0.1,0.2-0.1,0.4v0.8L35.5,22L35.5,22z
		 M37.8,21.8c-0.1,0.1-0.1,0.1-0.2,0.2c-0.1,0-0.2,0-0.2,0c-0.1,0-0.2,0-0.3-0.1c-0.1-0.1-0.1-0.2-0.1-0.3c0-0.1,0-0.2,0.1-0.2
		c0-0.1,0.1-0.1,0.1-0.1c0.1,0,0.2-0.1,0.3-0.1c0.2,0,0.3,0,0.4-0.1V21c0-0.1,0-0.2-0.1-0.2c0-0.1-0.1-0.1-0.2-0.1
		c-0.1,0-0.2,0-0.2,0.1c0,0-0.1,0.1-0.1,0.2l-0.2,0c0-0.2,0.1-0.3,0.2-0.3c0.1-0.1,0.2-0.1,0.4-0.1c0.1,0,0.2,0,0.3,0.1
		c0.1,0,0.1,0.1,0.1,0.2c0,0.1,0,0.2,0,0.3v0.3c0,0.2,0,0.4,0,0.4s0,0.1,0.1,0.2h-0.2C37.8,21.9,37.8,21.9,37.8,21.8L37.8,21.8z
		 M37.7,21.3c-0.1,0-0.2,0.1-0.3,0.1c-0.1,0-0.1,0-0.2,0c0,0-0.1,0-0.1,0.1c0,0,0,0.1,0,0.1c0,0.1,0,0.1,0.1,0.2
		c0,0,0.1,0.1,0.2,0.1c0.1,0,0.1,0,0.2-0.1s0.1-0.1,0.1-0.1C37.7,21.5,37.8,21.5,37.7,21.3L37.7,21.3L37.7,21.3z M38.4,22.1l0.2,0
		c0,0.1,0,0.1,0.1,0.2c0,0,0.1,0.1,0.2,0.1c0.1,0,0.2,0,0.2-0.1c0.1,0,0.1-0.1,0.1-0.2c0,0,0-0.2,0-0.3c0,0.1-0.1,0.1-0.2,0.1
		c-0.1,0-0.1,0-0.2,0c-0.1,0-0.3-0.1-0.4-0.2c-0.1-0.1-0.2-0.3-0.2-0.5c0-0.2,0-0.3,0.1-0.4s0.1-0.2,0.2-0.3c0.1,0,0.2-0.1,0.3-0.1
		c0.1,0,0.1,0,0.2,0c0.1,0,0.1,0.1,0.2,0.2v-0.2h0.2v1.2c0,0.2,0,0.4-0.1,0.5c0,0.1-0.1,0.2-0.2,0.2c-0.1,0.1-0.2,0.1-0.3,0.1
		c-0.2,0-0.3,0-0.4-0.1C38.4,22.3,38.4,22.2,38.4,22.1L38.4,22.1z M38.5,21.2c0,0.2,0,0.3,0.1,0.4c0.1,0.1,0.1,0.1,0.2,0.1
		c0.1,0,0.2,0,0.2-0.1s0.1-0.2,0.1-0.4c0-0.2,0-0.3-0.1-0.4s-0.2-0.1-0.3-0.1c-0.1,0-0.2,0-0.2,0.1C38.6,20.9,38.5,21,38.5,21.2
		L38.5,21.2z M40.7,21.5l0.2,0c0,0.2-0.1,0.3-0.2,0.3c-0.1,0.1-0.2,0.1-0.3,0.1c-0.2,0-0.3-0.1-0.4-0.2c-0.1-0.1-0.2-0.3-0.2-0.5
		c0-0.2,0.1-0.4,0.2-0.6c0.1-0.1,0.3-0.2,0.4-0.2c0.2,0,0.3,0.1,0.4,0.2c0.1,0.1,0.2,0.3,0.2,0.6v0.1H40c0,0.2,0,0.3,0.1,0.4
		s0.2,0.1,0.3,0.1C40.5,21.8,40.6,21.7,40.7,21.5L40.7,21.5z M40,21.1h0.7c0-0.1,0-0.2-0.1-0.3c-0.1-0.1-0.2-0.1-0.3-0.1
		c-0.1,0-0.2,0-0.2,0.1C40,20.9,40,21,40,21.1L40,21.1z M41.3,22v-1.4h0.2v0.2c0-0.1,0.1-0.1,0.2-0.2c0.1,0,0.1-0.1,0.2-0.1
		c0.1,0,0.2,0,0.2,0.1c0.1,0,0.1,0.1,0.1,0.2c0-0.1,0.1-0.1,0.2-0.2c0.1,0,0.1-0.1,0.2-0.1c0.1,0,0.2,0,0.3,0.1
		C43,20.7,43,20.8,43,21v1h-0.2v-0.9c0-0.1,0-0.2,0-0.2c0,0,0-0.1-0.1-0.1s-0.1,0-0.1,0c-0.1,0-0.2,0-0.2,0.1
		c-0.1,0.1-0.1,0.2-0.1,0.3V22H42V21c0-0.1,0-0.2-0.1-0.3c0,0-0.1-0.1-0.2-0.1c-0.1,0-0.2,0-0.2,0.1c-0.1,0.1-0.1,0.2-0.1,0.4V22
		H41.3L41.3,22z M44.3,21.5l0.2,0c0,0.2-0.1,0.3-0.2,0.3c-0.1,0.1-0.2,0.1-0.3,0.1c-0.2,0-0.3-0.1-0.4-0.2c-0.1-0.1-0.2-0.3-0.2-0.5
		c0-0.2,0.1-0.4,0.2-0.6c0.1-0.1,0.3-0.2,0.4-0.2s0.3,0.1,0.4,0.2c0.1,0.1,0.2,0.3,0.2,0.6v0.1h-0.9c0,0.2,0,0.3,0.1,0.4
		c0.1,0.1,0.2,0.1,0.3,0.1C44.1,21.8,44.2,21.7,44.3,21.5L44.3,21.5z M43.6,21.1h0.7c0-0.1,0-0.2-0.1-0.3c-0.1-0.1-0.2-0.1-0.3-0.1
		c-0.1,0-0.2,0-0.2,0.1C43.6,20.9,43.6,21,43.6,21.1L43.6,21.1z M44.9,22v-1.4H45v0.2c0-0.1,0.1-0.1,0.2-0.2c0.1,0,0.1-0.1,0.2-0.1
		c0.1,0,0.1,0,0.2,0c0.1,0,0.1,0.1,0.1,0.1s0.1,0.1,0.1,0.2c0,0.1,0,0.2,0,0.3V22h-0.2v-0.9c0-0.1,0-0.2,0-0.2c0,0,0-0.1-0.1-0.1
		c0,0-0.1,0-0.1,0c-0.1,0-0.2,0-0.2,0.1c-0.1,0.1-0.1,0.2-0.1,0.4v0.8L44.9,22L44.9,22z M46.8,21.7l0,0.2c-0.1,0-0.1,0-0.2,0
		c-0.1,0-0.1,0-0.2,0c0,0-0.1-0.1-0.1-0.1c0,0,0-0.1,0-0.3v-0.8h-0.2v-0.2h0.2v-0.4l0.2-0.1v0.5h0.2v0.2h-0.2v0.8c0,0.1,0,0.1,0,0.1
		C46.6,21.7,46.6,21.7,46.8,21.7C46.7,21.8,46.7,21.7,46.8,21.7L46.8,21.7z M47.7,21.3l0.2,0c0,0.1,0,0.2,0.1,0.3s0.1,0.1,0.2,0.1
		c0.1,0,0.2,0.1,0.3,0.1c0.1,0,0.2,0,0.3-0.1c0.1-0.1,0.1-0.1,0.1-0.2c0-0.1,0-0.1,0-0.2c0,0-0.1-0.1-0.1-0.1s-0.2-0.1-0.4-0.1
		C48.1,21,48,21,48,20.9c-0.1,0-0.1-0.1-0.2-0.2c0-0.1-0.1-0.1-0.1-0.2c0-0.2,0.1-0.3,0.2-0.4C48,20,48.1,20,48.3,20
		c0.1,0,0.2,0,0.3,0.1c0.1,0,0.2,0.1,0.2,0.2c0,0.1,0.1,0.2,0.1,0.3l-0.2,0c0-0.1,0-0.2-0.1-0.3c-0.1-0.1-0.2-0.1-0.3-0.1
		c-0.1,0-0.2,0-0.3,0.1C48,20.3,48,20.4,48,20.5c0,0.1,0,0.1,0.1,0.2c0,0,0.2,0.1,0.3,0.1c0.2,0,0.3,0.1,0.4,0.1
		c0.1,0,0.2,0.1,0.2,0.2c0,0.1,0.1,0.2,0.1,0.3s0,0.2-0.1,0.3s-0.1,0.2-0.2,0.2c-0.1,0-0.2,0.1-0.3,0.1c-0.2,0-0.4-0.1-0.5-0.2
		C47.8,21.7,47.7,21.5,47.7,21.3L47.7,21.3z M49.4,22.5l0-0.2c0,0,0.1,0,0.1,0c0,0,0.1,0,0.1,0c0,0,0,0,0.1-0.1c0,0,0-0.1,0.1-0.2
		l-0.5-1.4h0.2l0.3,0.8c0,0.1,0.1,0.2,0.1,0.3c0-0.1,0-0.2,0.1-0.3l0.3-0.8h0.2L50,22c-0.1,0.2-0.1,0.3-0.1,0.4
		c0,0.1-0.1,0.1-0.1,0.1c0,0-0.1,0-0.2,0C49.5,22.5,49.5,22.5,49.4,22.5L49.4,22.5z M50.7,21.5l0.2,0c0,0.1,0,0.2,0.1,0.2
		c0.1,0,0.1,0.1,0.2,0.1c0.1,0,0.2,0,0.2-0.1c0,0,0.1-0.1,0.1-0.2c0-0.1,0-0.1-0.1-0.1c0,0-0.1,0-0.2-0.1c-0.2,0-0.3-0.1-0.3-0.1
		s-0.1-0.1-0.1-0.1s0-0.1,0-0.2c0-0.1,0-0.2,0.1-0.3c0.1-0.1,0.2-0.1,0.3-0.1c0.1,0,0.2,0,0.2,0c0.1,0,0.1,0.1,0.2,0.1
		c0,0,0.1,0.1,0.1,0.2l-0.2,0c0-0.2-0.1-0.2-0.3-0.2c-0.1,0-0.2,0-0.2,0c0,0-0.1,0.1-0.1,0.1c0,0,0,0.1,0.1,0.1c0,0,0.1,0,0.2,0.1
		c0.2,0,0.3,0.1,0.3,0.1c0,0,0.1,0.1,0.1,0.1c0,0,0,0.1,0,0.2c0,0.1,0,0.2-0.1,0.3C51.5,22,51.4,22,51.2,22
		C50.9,22,50.7,21.8,50.7,21.5L50.7,21.5z M52.5,21.7l0,0.2c-0.1,0-0.1,0-0.2,0c-0.1,0-0.1,0-0.2,0c0,0-0.1-0.1-0.1-0.1
		c0,0,0-0.1,0-0.3v-0.8H52v-0.2h0.2v-0.4l0.2-0.1v0.5h0.2v0.2h-0.2v0.8c0,0.1,0,0.1,0,0.1C52.4,21.7,52.4,21.7,52.5,21.7
		C52.5,21.8,52.5,21.7,52.5,21.7L52.5,21.7z M53.7,21.5l0.2,0c0,0.2-0.1,0.3-0.2,0.3c-0.1,0.1-0.2,0.1-0.3,0.1
		c-0.2,0-0.3-0.1-0.4-0.2c-0.1-0.1-0.2-0.3-0.2-0.5c0-0.2,0.1-0.4,0.2-0.6c0.1-0.1,0.3-0.2,0.4-0.2c0.2,0,0.3,0.1,0.4,0.2
		c0.1,0.1,0.2,0.3,0.2,0.6v0.1H53c0,0.2,0,0.3,0.1,0.4c0.1,0.1,0.2,0.1,0.3,0.1C53.5,21.8,53.6,21.7,53.7,21.5L53.7,21.5z M53,21.1
		h0.7c0-0.1,0-0.2-0.1-0.3c-0.1-0.1-0.2-0.1-0.3-0.1c-0.1,0-0.2,0-0.2,0.1C53.1,20.9,53,21,53,21.1L53,21.1z M54.3,22v-1.4h0.2v0.2
		c0-0.1,0.1-0.1,0.2-0.2c0.1,0,0.1-0.1,0.2-0.1c0.1,0,0.2,0,0.2,0.1c0.1,0,0.1,0.1,0.1,0.2c0-0.1,0.1-0.1,0.2-0.2
		c0.1,0,0.1-0.1,0.2-0.1c0.1,0,0.2,0,0.3,0.1C56,20.7,56,20.8,56,21v1h-0.2v-0.9c0-0.1,0-0.2,0-0.2c0,0,0-0.1-0.1-0.1
		c0,0-0.1,0-0.1,0c-0.1,0-0.2,0-0.2,0.1c-0.1,0.1-0.1,0.2-0.1,0.3V22h-0.2V21c0-0.1,0-0.2-0.1-0.3c0,0-0.1-0.1-0.2-0.1
		c-0.1,0-0.2,0-0.2,0.1c-0.1,0.1-0.1,0.2-0.1,0.4V22H54.3L54.3,22z"/>
	<g>
		<path fill="#F4F4F4" d="M13.1,22.3l-0.2-0.4l2.3-3.8c0.4-0.6,0.4-1.5,0.1-2.2l-2.3-3.9l0.2-0.3c0.3-0.4,0.7-0.5,0.9-0.1l2.8,4.6
			c0.2,0.4,0.2,1.1-0.1,1.5L14,22.2C13.7,22.6,13.3,22.7,13.1,22.3z"/>
		<path fill="#F4F4F4" d="M11.1,22.3l-2.8-4.6c-0.2-0.4-0.2-1.1,0.1-1.5l2.6-4.4c0.3-0.4,0.7-0.5,0.9-0.1l2.8,4.6
			c0.2,0.4,0.2,1.1-0.1,1.5L12,22.2C11.7,22.6,11.3,22.7,11.1,22.3z"/>
		<path fill="#F4F4F4" d="M9.8,22.3l0.2-0.4l-2.3-3.8c-0.4-0.6-0.4-1.5-0.1-2.2l2.3-3.9l-0.2-0.3c-0.3-0.4-0.7-0.5-0.9-0.1l-2.8,4.6
			c-0.2,0.4-0.2,1.1,0.1,1.5l2.6,4.4C9.1,22.6,9.5,22.7,9.8,22.3z"/>
	</g>
</g>
</svg>
